# xmcd CD database file
#
# Track frame offsets:
#	150
#	20937
#	43037
#	65802
#	87312
#	100227
#	122782
#	138827
#	154870
#	177950
#
# Disc length: 2637 seconds
#
# Revision: 0
# Processed by: cddbd v1.5PL3 Copyright (c) Steve Scherf et al.
# Submitted via: CDex 1.50
#
DISCID=8c0a4b0a
DTITLE=JAZZ EXPRESS - The Songs of WHITNEY HOUSTON
DYEAR=1900
DGENRE=Jazz
TTITLE0=TAKE GOOD CARE OF MY HEART
TTITLE1=DIDN'T WE ALMOST HAVE IT ALL
TTITLE2=HOW WILL I KNOW
TTITLE3=GREATEST LOVE OF ALL
TTITLE4=ALL THE MAN THAT I NEED
TTITLE5=ALL AT ONCE
TTITLE6=WHERE YOU ARE
TTITLE7=I WILL ALWAYS LOVE YOU
TTITLE8=MIRACLE
TTITLE9=SO EMOTIONAL
EXTD=
EXTT0=
EXTT1=
EXTT2=
EXTT3=
EXTT4=
EXTT5=
EXTT6=
EXTT7=
EXTT8=
EXTT9=
PLAYORDER=
